# Blender v2.70 (sub 0) OBJ File: ''
# www.blender.org
o Cube
v -0.943190 0.654918 -5.102880
v -1.197962 1.073449 -3.163829
v 0.778932 1.288896 -2.950587
v 1.033704 0.870365 -4.889639
v -0.778933 -1.288896 -4.661740
v -1.033704 -0.870365 -2.722688
v 0.943190 -0.654918 -2.509447
v 1.197962 -1.073449 -4.448498
vn 0.082129 -0.971907 0.220570
vn -0.082129 0.971907 -0.220570
vn 0.988447 0.107724 0.106620
vn 0.127386 -0.209265 -0.969526
vn -0.988447 -0.107724 -0.106621
vn -0.127386 0.209266 0.969526
vn 0.988447 0.107723 0.106621
vn 0.127386 -0.209266 -0.969526
s off
f 4//1 3//1 2//1
f 5//2 6//2 7//2
f 2//3 6//3 5//3
f 2//4 3//4 7//4
f 4//5 8//5 7//5
f 5//6 8//6 4//6
f 1//1 4//1 2//1
f 8//2 5//2 7//2
f 1//7 2//7 5//7
f 6//8 2//8 7//8
f 3//5 4//5 7//5
f 1//6 5//6 4//6
