# Blender v2.70 (sub 0) OBJ File: ''
# www.blender.org
o Icosphere.001
v 0.000000 0.210248 0.000000
v 0.723607 0.763028 0.525725
v -0.276388 0.763028 0.850649
v -0.894426 0.763032 0.000000
v -0.276388 0.763028 -0.850649
v 0.723607 0.763028 -0.525725
v 0.276388 1.657468 0.850649
v -0.723607 1.657467 0.525725
v -0.723607 1.657467 -0.525725
v 0.276388 1.657468 -0.850649
v 0.894426 1.657463 0.000000
v 0.000000 2.210248 0.000000
v -0.162456 0.359593 0.499995
v 0.425323 0.359594 0.309011
v 0.262869 0.684510 0.809012
v 0.850648 0.684512 0.000000
v 0.425323 0.359594 -0.309011
v -0.525730 0.359596 0.000000
v -0.688189 0.684512 0.499997
v -0.162456 0.359593 -0.499995
v -0.688189 0.684512 -0.499997
v 0.262869 0.684510 -0.809012
v 0.951058 1.210248 0.309013
v 0.951058 1.210248 -0.309013
v 0.000000 1.210248 1.000000
v 0.587786 1.210248 0.809017
v -0.951058 1.210248 0.309013
v -0.587786 1.210248 0.809017
v -0.587786 1.210248 -0.809017
v -0.951058 1.210248 -0.309013
v 0.587786 1.210248 -0.809017
v 0.000000 1.210248 -1.000000
v 0.688189 1.735984 0.499997
v -0.262869 1.735985 0.809012
v -0.850648 1.735984 0.000000
v -0.262869 1.735985 -0.809012
v 0.688189 1.735984 -0.499997
v 0.162456 2.060902 0.499995
v 0.525730 2.060899 0.000000
v -0.425323 2.060902 0.309011
v -0.425323 2.060902 -0.309011
v 0.162456 2.060902 -0.499995
vn 0.102381 -0.943523 0.315090
vn 0.700224 -0.661699 0.268032
vn -0.268034 -0.943523 0.194736
vn -0.268034 -0.943523 -0.194736
vn 0.102381 -0.943523 -0.315090
vn 0.904989 -0.330385 0.268032
vn 0.024747 -0.330386 0.943521
vn -0.889697 -0.330385 0.315095
vn -0.574602 -0.330388 -0.748784
vn 0.534576 -0.330387 -0.777865
vn 0.802609 -0.125627 0.583126
vn -0.306569 -0.125629 0.943522
vn -0.992077 -0.125628 0.000000
vn -0.306569 -0.125629 -0.943522
vn 0.802609 -0.125627 -0.583126
vn 0.408946 0.661699 0.628425
vn -0.471300 0.661699 0.583122
vn -0.700224 0.661699 -0.268032
vn 0.038530 0.661699 -0.748779
vn 0.724042 0.661695 -0.194736
vn -0.038531 -0.661699 0.748779
vn 0.187594 -0.794658 0.577345
vn 0.471300 -0.661698 0.583122
vn 0.700224 -0.661699 -0.268032
vn 0.607060 -0.794656 0.000000
vn 0.331305 -0.943524 0.000000
vn -0.724042 -0.661695 0.194736
vn -0.491120 -0.794657 0.356821
vn -0.408946 -0.661698 0.628425
vn -0.408946 -0.661698 -0.628425
vn -0.491120 -0.794657 -0.356821
vn -0.724042 -0.661695 -0.194736
vn 0.471300 -0.661698 -0.583122
vn 0.187594 -0.794658 -0.577345
vn -0.038531 -0.661699 -0.748779
vn 0.992077 0.125628 0.000000
vn 0.982246 -0.187598 0.000000
vn 0.904989 -0.330385 -0.268032
vn 0.306569 0.125629 0.943522
vn 0.303531 -0.187597 0.934171
vn 0.534576 -0.330386 0.777865
vn -0.802609 0.125627 0.583126
vn -0.794656 -0.187595 0.577348
vn -0.574602 -0.330388 0.748784
vn -0.802609 0.125627 -0.583126
vn -0.794656 -0.187595 -0.577348
vn -0.889697 -0.330385 -0.315095
vn 0.306569 0.125629 -0.943522
vn 0.303531 -0.187597 -0.934171
vn 0.024747 -0.330386 -0.943521
vn 0.574602 0.330388 0.748784
vn 0.794655 0.187595 0.577348
vn 0.889697 0.330385 0.315094
vn -0.534576 0.330387 0.777865
vn -0.303531 0.187597 0.934172
vn -0.024747 0.330386 0.943521
vn -0.904989 0.330385 -0.268032
vn -0.982246 0.187598 0.000000
vn -0.904989 0.330385 0.268032
vn -0.024747 0.330386 -0.943521
vn -0.303531 0.187597 -0.934172
vn -0.534576 0.330387 -0.777865
vn 0.889697 0.330385 -0.315094
vn 0.794655 0.187595 -0.577348
vn 0.574602 0.330388 -0.748784
vn 0.268034 0.943523 0.194738
vn 0.491119 0.794657 0.356821
vn 0.724042 0.661695 0.194736
vn -0.102381 0.943523 0.315090
vn -0.187594 0.794658 0.577345
vn 0.038530 0.661699 0.748779
vn -0.331305 0.943524 0.000000
vn -0.607060 0.794656 0.000000
vn -0.700224 0.661699 0.268032
vn -0.102381 0.943523 -0.315090
vn -0.187594 0.794658 -0.577345
vn -0.471300 0.661699 -0.583122
vn 0.268034 0.943523 -0.194737
vn 0.491119 0.794657 -0.356821
vn 0.408946 0.661699 -0.628425
s off
f 1//1 14//1 13//1
f 2//2 14//2 16//2
f 1//3 13//3 18//3
f 1//4 18//4 20//4
f 1//5 20//5 17//5
f 2//6 16//6 23//6
f 3//7 15//7 25//7
f 4//8 19//8 27//8
f 5//9 21//9 29//9
f 6//10 22//10 31//10
f 2//11 23//11 26//11
f 3//12 25//12 28//12
f 4//13 27//13 30//13
f 5//14 29//14 32//14
f 6//15 31//15 24//15
f 7//16 33//16 38//16
f 8//17 34//17 40//17
f 9//18 35//18 41//18
f 10//19 36//19 42//19
f 11//20 37//20 39//20
f 13//21 15//21 3//21
f 13//22 14//22 15//22
f 14//23 2//23 15//23
f 16//24 17//24 6//24
f 16//25 14//25 17//25
f 14//26 1//26 17//26
f 18//27 19//27 4//27
f 18//28 13//28 19//28
f 13//29 3//29 19//29
f 20//30 21//30 5//30
f 20//31 18//31 21//31
f 18//32 4//32 21//32
f 17//33 22//33 6//33
f 17//34 20//34 22//34
f 20//35 5//35 22//35
f 23//36 24//36 11//36
f 23//37 16//37 24//37
f 16//38 6//38 24//38
f 25//39 26//39 7//39
f 25//40 15//40 26//40
f 15//41 2//41 26//41
f 27//42 28//42 8//42
f 27//43 19//43 28//43
f 19//44 3//44 28//44
f 29//45 30//45 9//45
f 29//46 21//46 30//46
f 21//47 4//47 30//47
f 31//48 32//48 10//48
f 31//49 22//49 32//49
f 22//50 5//50 32//50
f 26//51 33//51 7//51
f 26//52 23//52 33//52
f 23//53 11//53 33//53
f 28//54 34//54 8//54
f 28//55 25//55 34//55
f 25//56 7//56 34//56
f 30//57 35//57 9//57
f 30//58 27//58 35//58
f 27//59 8//59 35//59
f 32//60 36//60 10//60
f 32//61 29//61 36//61
f 29//62 9//62 36//62
f 24//63 37//63 11//63
f 24//64 31//64 37//64
f 31//65 10//65 37//65
f 38//66 39//66 12//66
f 38//67 33//67 39//67
f 33//68 11//68 39//68
f 40//69 38//69 12//69
f 40//70 34//70 38//70
f 34//71 7//71 38//71
f 41//72 40//72 12//72
f 41//73 35//73 40//73
f 35//74 8//74 40//74
f 42//75 41//75 12//75
f 42//76 36//76 41//76
f 36//77 9//77 41//77
f 39//78 42//78 12//78
f 39//79 37//79 42//79
f 37//80 10//80 42//80
o Icosphere
v 0.000000 -1.728560 0.000000
v 0.723607 -1.175780 0.525725
v -0.276388 -1.175780 0.850649
v -0.894426 -1.175776 0.000000
v -0.276388 -1.175780 -0.850649
v 0.723607 -1.175780 -0.525725
v 0.276388 -0.281340 0.850649
v -0.723607 -0.281341 0.525725
v -0.723607 -0.281341 -0.525725
v 0.276388 -0.281340 -0.850649
v 0.894426 -0.281345 0.000000
v 0.000000 0.271440 0.000000
v -0.162456 -1.579215 0.499995
v 0.425323 -1.579214 0.309011
v 0.262869 -1.254298 0.809012
v 0.850648 -1.254296 0.000000
v 0.425323 -1.579214 -0.309011
v -0.525730 -1.579212 0.000000
v -0.688189 -1.254296 0.499997
v -0.162456 -1.579215 -0.499995
v -0.688189 -1.254296 -0.499997
v 0.262869 -1.254298 -0.809012
v 0.951058 -0.728560 0.309013
v 0.951058 -0.728560 -0.309013
v 0.000000 -0.728560 1.000000
v 0.587786 -0.728560 0.809017
v -0.951058 -0.728560 0.309013
v -0.587786 -0.728560 0.809017
v -0.587786 -0.728560 -0.809017
v -0.951058 -0.728560 -0.309013
v 0.587786 -0.728560 -0.809017
v 0.000000 -0.728560 -1.000000
v 0.688189 -0.202824 0.499997
v -0.262869 -0.202823 0.809012
v -0.850648 -0.202824 0.000000
v -0.262869 -0.202823 -0.809012
v 0.688189 -0.202824 -0.499997
v 0.162456 0.122094 0.499995
v 0.525730 0.122091 0.000000
v -0.425323 0.122094 0.309011
v -0.425323 0.122094 -0.309011
v 0.162456 0.122094 -0.499995
vn 0.000000 -1.000000 0.000000
vn 0.425306 -0.850642 0.309000
vn -0.162450 -0.850642 0.499985
vn 0.723594 -0.447188 0.525712
vn 0.850642 -0.525712 0.000000
vn -0.525712 -0.850642 0.000000
vn -0.162450 -0.850642 -0.499985
vn 0.425306 -0.850642 -0.309000
vn 0.951048 0.000000 0.309000
vn -0.276376 -0.447218 0.850642
vn 0.262856 -0.525712 0.808985
vn 0.000000 0.000000 1.000000
vn -0.894406 -0.447188 0.000000
vn -0.688162 -0.525712 0.499985
vn -0.951048 0.000000 0.309000
vn -0.276376 -0.447218 -0.850642
vn -0.688162 -0.525712 -0.499985
vn -0.587756 0.000000 -0.809015
vn 0.723594 -0.447188 -0.525712
vn 0.262856 -0.525712 -0.808985
vn 0.587756 0.000000 -0.809015
vn 0.587756 0.000000 0.809015
vn -0.587756 0.000000 0.809015
vn -0.951048 0.000000 -0.309000
vn 0.000000 0.000000 -1.000000
vn 0.951048 0.000000 -0.309000
vn 0.276376 0.447218 0.850642
vn 0.688162 0.525712 0.499985
vn 0.162450 0.850642 0.499985
vn -0.723594 0.447188 0.525712
vn -0.262856 0.525712 0.808985
vn -0.425306 0.850642 0.309000
vn -0.723594 0.447188 -0.525712
vn -0.850642 0.525712 0.000000
vn -0.425306 0.850642 -0.309000
vn 0.276376 0.447218 -0.850642
vn -0.262856 0.525712 -0.808985
vn 0.162450 0.850642 -0.499985
vn 0.894406 0.447188 0.000000
vn 0.688162 0.525712 -0.499985
vn 0.525712 0.850642 0.000000
vn 0.000000 1.000000 0.000000
s 1
f 43//81 56//82 55//83
f 44//84 56//82 58//85
f 43//81 55//83 60//86
f 43//81 60//86 62//87
f 43//81 62//87 59//88
f 44//84 58//85 65//89
f 45//90 57//91 67//92
f 46//93 61//94 69//95
f 47//96 63//97 71//98
f 48//99 64//100 73//101
f 44//84 65//89 68//102
f 45//90 67//92 70//103
f 46//93 69//95 72//104
f 47//96 71//98 74//105
f 48//99 73//101 66//106
f 49//107 75//108 80//109
f 50//110 76//111 82//112
f 51//113 77//114 83//115
f 52//116 78//117 84//118
f 53//119 79//120 81//121
f 55//83 57//91 45//90
f 55//83 56//82 57//91
f 56//82 44//84 57//91
f 58//85 59//88 48//99
f 58//85 56//82 59//88
f 56//82 43//81 59//88
f 60//86 61//94 46//93
f 60//86 55//83 61//94
f 55//83 45//90 61//94
f 62//87 63//97 47//96
f 62//87 60//86 63//97
f 60//86 46//93 63//97
f 59//88 64//100 48//99
f 59//88 62//87 64//100
f 62//87 47//96 64//100
f 65//89 66//106 53//119
f 65//89 58//85 66//106
f 58//85 48//99 66//106
f 67//92 68//102 49//107
f 67//92 57//91 68//102
f 57//91 44//84 68//102
f 69//95 70//103 50//110
f 69//95 61//94 70//103
f 61//94 45//90 70//103
f 71//98 72//104 51//113
f 71//98 63//97 72//104
f 63//97 46//93 72//104
f 73//101 74//105 52//116
f 73//101 64//100 74//105
f 64//100 47//96 74//105
f 68//102 75//108 49//107
f 68//102 65//89 75//108
f 65//89 53//119 75//108
f 70//103 76//111 50//110
f 70//103 67//92 76//111
f 67//92 49//107 76//111
f 72//104 77//114 51//113
f 72//104 69//95 77//114
f 69//95 50//110 77//114
f 74//105 78//117 52//116
f 74//105 71//98 78//117
f 71//98 51//113 78//117
f 66//106 79//120 53//119
f 66//106 73//101 79//120
f 73//101 52//116 79//120
f 80//109 81//121 54//122
f 80//109 75//108 81//121
f 75//108 53//119 81//121
f 82//112 80//109 54//122
f 82//112 76//111 80//109
f 76//111 49//107 80//109
f 83//115 82//112 54//122
f 83//115 77//114 82//112
f 77//114 50//110 82//112
f 84//118 83//115 54//122
f 84//118 78//117 83//115
f 78//117 51//113 83//115
f 81//121 84//118 54//122
f 81//121 79//120 84//118
f 79//120 52//116 84//118
