# Blender v2.70 (sub 0) OBJ File: ''
# www.blender.org
o Mesh_default
v 1.038265 1.349571 -0.781334
v 1.146509 1.247424 -0.341774
v 1.145795 1.242779 0.339053
v -1.812935 0.888071 0.133822
v -2.665327 0.937682 0.243296
v -2.896020 0.821140 -0.165518
v 0.189627 1.958051 -0.033276
v -0.092593 1.587706 0.108505
v -0.108495 1.587706 -0.124407
v 2.983432 1.261368 0.025318
v 3.087415 1.323423 0.158798
v 3.201323 1.320652 -0.088402
v 0.564334 1.349571 1.255265
v 0.124774 1.247424 1.363509
v -0.556053 1.242779 1.362795
v 0.851988 1.242794 -0.915107
v 2.899856 1.243364 -0.105841
v 2.728657 1.292527 -0.173265
v -1.132107 1.242794 -1.068988
v -0.998334 1.349571 -1.255265
v -1.634846 1.335457 -0.414348
v 1.581467 -0.204984 -0.997183
v 0.840767 0.349216 -1.618204
v 2.594180 1.308516 0.005263
v 2.352182 1.134070 -0.071714
v 2.671519 1.281463 0.178825
v -1.751037 -0.507017 -1.319951
v -1.835204 0.349216 -1.057767
v -1.214183 -0.204984 -1.798467
v -3.106924 0.739267 0.229941
v -2.887761 1.061751 0.034602
v 2.591862 1.227078 -0.008053
v -1.793285 0.919626 -0.217803
v -2.964190 0.942697 -0.230559
v 1.049687 1.278525 0.522446
v -0.184555 1.523327 -0.214905
v 0.653610 1.293519 1.060755
v 0.190531 -0.533901 1.959991
v -0.579543 -1.024238 1.466550
v 0.369609 -1.061191 1.372947
v 0.003598 1.936700 0.334311
v 0.849872 -1.112848 0.952924
v 1.317037 -0.507017 1.319951
v 1.102951 -0.507017 -1.534037
v 0.735924 -1.112848 -1.066872
v 0.145543 -1.024238 -1.466550
v -0.341407 1.587706 -0.108505
v 0.271506 -0.505764 -1.934936
v -0.374523 0.407042 -1.905289
v 1.249550 -1.024238 0.362543
v 1.742991 -0.533901 -0.407531
v 1.717936 -0.505764 0.488506
v -1.472265 1.349571 0.781334
v -2.015467 -0.204984 0.997183
v -1.274767 0.349216 1.618204
v -1.169924 -1.112848 1.066872
v -1.536951 -0.507017 1.534037
v -1.671449 -1.045372 0.453758
v -0.624531 -0.533901 -1.959991
v 0.780183 -0.204984 1.798467
v 1.401204 0.349216 1.057767
v -0.631348 1.335457 1.417846
v -0.059477 0.407043 1.905289
v 1.488545 -0.448650 0.454370
v 2.209370 -0.187903 -0.341161
v 2.295826 -0.065747 0.309172
v 2.706832 0.953505 -0.004788
v 1.155947 -1.061191 -0.586609
v -1.735161 1.060943 0.201030
v -1.163973 -1.147727 -0.575307
v -2.913052 0.033993 0.247580
v -3.179237 0.304372 -0.043871
v -2.827314 0.219737 -0.147573
v -2.933155 0.731367 0.151116
v -0.705506 -0.505764 1.934936
v -1.580509 1.247424 0.341773
v -1.579795 1.242779 -0.339052
v -1.683550 -1.024238 -0.362543
v -2.122289 0.407043 0.157523
v -2.227397 -0.277983 -0.099446
v -3.191971 0.780671 -0.220775
v -1.006750 -1.056052 -1.298209
v -2.151936 -0.505764 -0.488506
v -0.538540 1.928247 -0.273428
v -0.490428 1.928247 0.321540
v 2.068943 0.430470 -0.138745
v 1.482684 0.050219 -0.476889
v 1.484147 0.289307 0.145310
v 0.197348 1.335457 -1.417846
v -1.720864 1.089040 -0.128113
v 0.698107 1.242794 1.068988
v -1.087440 1.264195 -1.011306
v -1.483687 1.278525 -0.522446
v -1.277755 1.293519 0.870610
v -0.535269 1.251448 -1.289155
v 0.305446 1.278525 -1.266687
v 2.135412 0.309389 0.391718
v 0.047532 1.905487 -0.322834
v -0.325505 1.587706 0.124407
v -2.133516 -0.514510 -0.184471
v -2.607867 -0.256766 -0.200001
v -2.210036 -0.289064 0.153731
v 1.688289 0.407043 -0.157523
v -1.285987 1.242794 0.915108
v 1.200846 1.335457 0.414348
v 0.122053 1.242779 -1.362795
v 2.171537 0.199451 -0.445156
v 1.072155 1.251448 -0.318268
v -2.124744 -0.535372 0.155765
v -0.558774 1.247424 -1.363509
v 1.480360 -0.513671 -0.280586
v 0.794306 1.264195 -0.870440
v -1.506155 1.251448 0.318269
v -0.739446 1.278525 1.266687
v 0.101269 1.251448 1.289155
vn 0.214026 0.965209 -0.150090
vn -0.750301 -0.660355 0.031309
vn -0.853123 0.517188 -0.068537
vn 0.093330 -0.821565 0.562423
vn 0.015015 -0.085818 0.996185
vn 0.426221 -0.529527 -0.733421
vn 0.902829 0.429273 -0.024262
vn 0.874477 0.325510 0.359539
vn 0.596088 -0.610401 -0.521561
vn -0.186094 0.979092 -0.082146
vn 0.648183 0.424787 0.631977
vn 0.887326 0.316355 -0.335429
vn 0.150090 0.965209 0.214026
vn -0.031309 -0.660354 -0.750301
vn 0.068537 0.517189 -0.853123
vn -0.634890 0.216829 0.741552
vn -0.429022 -0.682554 0.591659
vn 0.217658 0.738975 -0.637562
vn 0.741552 0.216830 0.634891
vn -0.150090 0.965209 -0.214026
vn -0.274880 0.959960 -0.053835
vn 0.873348 -0.006439 -0.487014
vn 0.510269 0.276955 -0.814173
vn -0.147801 0.979400 -0.137394
vn -0.754845 0.629322 -0.184729
vn -0.115604 0.529435 0.840419
vn -0.725547 -0.340220 -0.598132
vn -0.814173 0.276955 -0.510269
vn -0.487014 -0.006439 -0.873348
vn -0.519089 0.183843 0.834681
vn -0.356853 0.918424 0.170690
vn 0.872822 0.467625 -0.139671
vn 0.078348 -0.305218 -0.949054
vn -0.239875 0.449416 -0.860469
vn 0.173735 0.984137 0.035922
vn 0.054262 0.951842 -0.301706
vn 0.094723 0.983643 0.153213
vn 0.171422 -0.363506 0.915647
vn -0.111637 -0.841121 0.529130
vn 0.225043 -0.842830 0.488845
vn 0.457228 0.353557 0.816004
vn 0.325541 -0.897061 0.298746
vn 0.717978 -0.338420 0.608234
vn 0.608234 -0.338420 -0.717978
vn 0.298532 -0.896847 -0.326334
vn 0.099429 -0.848933 -0.518998
vn -0.680746 -0.275948 -0.678518
vn 0.230018 -0.296640 -0.926847
vn -0.059053 0.293527 -0.954100
vn 0.529130 -0.841121 0.111637
vn 0.915647 -0.363506 -0.171422
vn 0.926847 -0.296640 0.230018
vn -0.214026 0.965209 0.150090
vn -0.891812 -0.085971 0.444105
vn -0.510269 0.276955 0.814173
vn -0.287637 -0.899319 0.329325
vn -0.614093 -0.335276 0.714438
vn -0.567278 -0.808496 0.156438
vn -0.162206 -0.365093 -0.916715
vn 0.487014 -0.006439 0.873348
vn 0.814173 0.276955 0.510269
vn -0.053835 0.959960 0.274880
vn 0.059053 0.293527 0.954100
vn 0.271186 -0.642108 0.717046
vn 0.581225 -0.615558 -0.532151
vn 0.668172 -0.502670 0.548479
vn 0.893002 -0.449965 -0.004456
vn 0.488845 -0.842830 -0.225043
vn 0.037225 0.705585 0.707647
vn -0.142582 -0.986145 -0.084445
vn -0.321207 -0.430860 0.843287
vn -0.917142 -0.365001 -0.159948
vn 0.700339 0.455092 -0.549883
vn 0.620533 -0.571917 0.536485
vn -0.230018 -0.296640 0.926847
vn 0.750303 -0.660353 -0.031309
vn 0.853124 0.517187 0.068535
vn -0.524979 -0.840327 -0.134800
vn -0.950835 0.302927 0.064058
vn -0.779839 0.452864 -0.432112
vn -0.722068 0.276864 -0.633961
vn -0.259682 -0.857906 -0.443281
vn -0.924192 -0.315714 -0.214820
vn -0.724021 0.328501 -0.606494
vn -0.639332 0.321543 0.698416
vn -0.645894 0.717093 -0.261849
vn -0.117994 0.285355 -0.951131
vn -0.373117 0.850920 0.369756
vn 0.053835 0.959960 -0.274880
vn -0.006153 0.915056 -0.403281
vn -0.741552 0.216829 -0.634891
vn -0.121738 0.976176 -0.179612
vn -0.175136 0.982853 -0.057673
vn -0.134680 0.985800 0.100295
vn -0.058238 0.972146 -0.227025
vn 0.070695 0.978299 -0.194764
vn -0.078707 0.354045 0.931883
vn 0.497055 0.246467 -0.831965
vn -0.526383 0.579455 0.622150
vn -0.360303 -0.788740 -0.498068
vn -0.410474 -0.552995 -0.724998
vn 0.349020 0.536259 0.768512
vn 0.552960 0.690073 -0.466941
vn 0.954100 0.293527 -0.059053
vn 0.634891 0.216827 -0.741552
vn 0.274880 0.959960 0.053835
vn -0.068537 0.517188 0.853123
vn 0.221534 0.172948 -0.959685
vn 0.207220 0.976995 -0.050399
vn -0.441012 -0.804119 0.398624
vn 0.031309 -0.660356 0.750300
vn 0.336468 -0.834198 -0.436924
vn 0.181259 0.976641 -0.115404
vn -0.238965 0.970710 0.024878
vn -0.002248 0.998344 0.057483
vn 0.024877 0.970710 0.238965
s 1
f 1//1 2//2 3//3
f 4//4 5//5 6//6
f 7//7 8//8 9//9
f 10//10 11//11 12//12
f 13//13 14//14 15//15
f 2//2 1//1 16//16
f 17//17 10//10 18//18
f 19//19 20//20 21//21
f 1//1 22//22 23//23
f 24//24 25//25 26//26
f 27//27 28//28 29//29
f 30//30 5//5 31//31
f 32//32 18//18 24//24
f 33//33 6//6 34//34
f 35//35 36//36 37//37
f 38//38 39//39 40//40
f 8//8 7//7 41//41
f 17//17 18//18 32//32
f 42//42 43//43 38//38
f 44//44 45//45 46//46
f 36//36 47//47 9//9
f 48//48 49//49 23//23
f 50//50 51//51 52//52
f 53//53 54//54 55//55
f 56//56 57//57 58//58
f 46//46 59//59 48//48
f 57//57 56//56 39//39
f 13//13 60//60 61//61
f 62//62 55//55 63//63
f 64//64 65//65 66//66
f 11//11 26//26 67//67
f 60//60 13//13 63//63
f 42//42 68//68 50//50
f 69//69 31//31 5//5
f 46//46 48//48 44//44
f 70//70 42//42 56//56
f 71//71 30//30 72//72
f 25//25 24//24 18//18
f 73//73 6//6 74//74
f 39//39 38//38 75//75
f 53//53 76//76 77//77
f 78//78 70//70 58//58
f 55//55 57//57 75//75
f 12//12 67//67 18//18
f 21//21 28//28 79//79
f 44//44 23//23 22//22
f 63//63 13//13 62//62
f 58//58 54//54 80//80
f 81//81 31//31 34//34
f 68//68 42//42 45//45
f 82//82 45//45 70//70
f 79//79 83//83 80//80
f 26//26 11//11 24//24
f 7//7 84//84 85//85
f 86//86 87//87 88//88
f 1//1 23//23 89//89
f 10//10 12//12 18//18
f 33//33 34//34 90//90
f 77//77 21//21 53//53
f 60//60 38//38 43//43
f 14//14 13//13 91//91
f 39//39 75//75 57//57
f 36//36 92//92 93//93
f 47//47 36//36 94//94
f 50//50 52//52 43//43
f 49//49 59//59 29//29
f 29//29 20//20 49//49
f 95//95 36//36 96//96
f 25//25 86//86 97//97
f 54//54 53//53 79//79
f 46//46 45//45 82//82
f 8//8 41//41 85//85
f 7//7 98//98 84//84
f 99//99 94//94 37//37
f 100//100 101//101 73//73
f 43//43 42//42 50//50
f 71//71 102//102 80//103
f 57//57 55//55 54//54
f 50//50 68//68 51//51
f 52//52 103//104 61//61
f 62//62 15//15 104//105
f 105//106 1//1 3//3
f 83//83 79//79 28//28
f 39//39 56//56 40//40
f 70//70 45//45 42//42
f 23//23 44//44 48//48
f 66//66 67//67 26//26
f 81//81 101//101 72//72
f 32//32 24//24 11//11
f 82//82 27//27 59//59
f 20//20 29//29 28//28
f 79//79 80//80 54//54
f 89//89 106//107 16//16
f 16//16 1//1 89//89
f 107//108 18//18 67//67
f 31//31 81//81 30//30
f 108//109 36//36 35//35
f 105//106 61//61 103//104
f 71//71 109//110 102//102
f 20//20 110//111 106//107
f 28//28 27//27 83//83
f 67//67 12//12 11//11
f 103//104 51//51 22//22
f 107//108 25//25 18//18
f 15//15 62//62 13//13
f 63//63 38//38 60//60
f 78//78 58//58 83//83
f 65//65 111//112 87//87
f 85//85 99//99 8//8
f 105//106 3//3 91//91
f 91//91 13//13 105//106
f 40//40 56//56 42//42
f 36//36 108//109 112//113
f 97//97 88//88 64//64
f 20//20 28//28 21//21
f 51//51 68//68 45//45
f 74//74 30//30 73//73
f 54//54 58//58 57//57
f 110//111 20//20 19//19
f 113//114 94//94 93//93
f 90//90 34//34 31//31
f 87//87 107//108 65//65
f 47//47 84//84 98//98
f 59//59 46//46 82//82
f 103//104 52//52 51//51
f 63//63 75//75 38//38
f 43//43 61//61 60//60
f 80//103 30//30 71//71
f 58//58 70//70 56//56
f 84//84 47//47 99//99
f 22//22 1//1 103//104
f 86//86 88//88 97//97
f 67//67 66//66 65//65
f 75//75 63//63 55//55
f 21//21 77//77 19//19
f 13//13 61//61 105//106
f 97//97 26//26 25//25
f 49//49 48//48 59//59
f 27//27 82//82 78//78
f 87//87 86//86 107//108
f 36//36 95//95 92//92
f 67//67 65//65 107//108
f 7//7 85//85 41//41
f 61//61 43//43 52//52
f 76//76 53//53 104//105
f 106//107 89//89 20//20
f 72//72 101//101 71//71
f 36//36 9//9 8//8
f 104//105 53//53 62//62
f 64//64 66//66 97//97
f 6//6 73//73 81//81
f 70//70 78//78 82//82
f 38//38 40//40 42//42
f 98//98 9//9 47//47
f 58//58 80//80 83//83
f 22//22 51//51 44//44
f 99//99 85//85 84//84
f 81//81 34//34 6//6
f 45//45 44//44 51//51
f 26//26 97//97 66//66
f 74//74 6//6 5//5
f 29//29 59//59 27//27
f 114//115 37//37 94//94
f 36//36 112//113 96//96
f 90//90 31//31 69//69
f 5//5 4//4 69//69
f 49//49 20//20 89//89
f 11//11 10//10 32//32
f 30//30 80//103 73//73
f 73//73 80//103 100//100
f 89//89 23//23 49//49
f 25//25 107//108 86//86
f 93//93 94//94 36//36
f 109//110 71//71 101//101
f 101//101 100//100 109//110
f 111//112 65//65 64//64
f 115//116 37//37 114//115
f 94//94 99//99 47//47
f 81//81 73//73 101//101
f 81//81 72//72 30//30
f 37//37 8//8 99//99
f 53//53 55//55 62//62
f 9//9 98//98 7//7
f 79//79 53//53 21//21
f 6//6 33//33 4//4
f 8//8 37//37 36//36
f 103//104 1//1 105//106
f 5//5 30//30 74//74
f 78//78 83//83 27//27
